<?xml version="1.0" encoding="UTF-8"?><!DOCTYPE svg PUBLIC "-//W3C//DTD SVG 1.1//EN" "http://www.w3.org/Graphics/SVG/1.1/DTD/svg11.dtd"><svg xmlns="http://www.w3.org/2000/svg"><symbol id="arrow" viewBox="0 0 58.6 28.9"><path class="st0" d="M57.3 23.2L55.5 26c-2.2 3.3-4.2 3.7-8.5 1.5l-17.4-9.2-17.4 9.2c-4.3 2.2-6.4 1.8-8.5-1.5l-1.8-2.8c-2.3-3.3-1.5-5.9 2.5-8.4L25.9 2C28.7.3 30.4.3 33.3 2l21.6 12.9c4 2.5 4.8 5 2.4 8.3z"/></symbol><symbol id="logo" viewBox="0 0 476.6 101.2"><path class="st0" d="M242.8 40.7c-11.6 0-20.6 6.6-23.7 16.4-1.1-3.7-3.1-7.1-5.8-9.8-4-4-10.1-6.6-17.5-6.6-11 0-19.5 5.8-23.1 14.7-.6-1.5-2-2.4-3.9-2.4H146c-2.8 0-4.3 1.5-4.3 4.2v3.2c0 2.8 1.5 4.3 4.3 4.3h10.3c-.6 2.6-2.1 4.8-4.2 6.5-2.7 2.3-6.3 3.5-10.1 3.5-9.4 0-16.3-7-16.3-16.5 0-9.7 7.1-16.7 15.9-16.7 4.5 0 8.4 1.9 11.5 4.4 2.1 1.7 4 1.9 6.1.1l4.4-4.1c2.1-1.9 2.1-4.3.1-6.2-5.7-5.5-13.4-8.9-22.7-8.9-18 0-32 13.3-32 31.2 0 18 13.8 31.2 32 31.2 9.1 0 17.1-3.3 22.7-8.9 3.3-3.2 5.8-7 7.4-11.4 1.9 12.2 12 20.4 25.3 20.4 7.3 0 15.8-2.4 19.9-6.9 1.1-1.2 1.9-2.8-.2-4.7l-3.2-3.2c-1.8-1.9-3.2-1.2-4.8.1-3.3 2.3-6.6 3.3-9.9 3.3-6.1 0-11.3-3.3-12-9.5h29.5c.9 0 1.7-.1 2.2-.3 1.5 12.7 11.8 21.2 25.5 21.2 7.3 0 15.8-2.4 19.9-6.9 1.1-1.2 1.9-2.8-.2-4.7l-3.2-3.2c-1.8-1.9-3.2-1.2-4.8.1-3.3 2.3-6.6 3.3-9.9 3.3-6.1 0-11.3-3.3-12-9.5h29.5c3.4 0 4.3-1.2 4.3-4.4 0-6.4-2.5-12.5-6.8-16.8-3.9-3.9-10-6.5-17.4-6.5zm-56.4 19c.6-4.9 4.1-8 9-8 2.7 0 4.8.9 6.5 2.6 1.3 1.3 2.2 3.2 2.6 5.4h-18.1zm47 0c.6-4.9 4.1-8 9-8 2.7 0 4.8.9 6.5 2.6 1.3 1.3 2.2 3.2 2.6 5.4h-18.1zM298.6 75.9c-.8-1.8-1.9-2.9-4.3-1.4-1 .6-2.4 1.3-3.8 1.3-2.9 0-5.2-1.5-5.2-6V53.1h9.2c2.7 0 4.3-1.6 4.3-4.3v-3.2c0-2.8-1.6-4.3-4.3-4.3h-9.2v-12c0-2.8-1.5-4.7-4.3-4.2l-7.4 1.3c-2.7.6-4.3 1.6-4.3 4.3v40.8c0 12.7 8.9 18 18.2 18 4.5 0 8.9-1.2 11.8-3.2 1.2-.9 2.9-2 1.9-4.3l-2.6-6.1z"/><path class="st0" d="M395.3 64c0-6.4-2.5-12.5-6.8-16.8-4-4-10.1-6.6-17.5-6.6-11.6 0-20.6 6.6-23.7 16.4-1.1-3.7-3.1-7.1-5.8-9.8-4-4-10.1-6.6-17.5-6.6-14.6 0-24.9 10.3-24.9 24.3 0 14.5 10.8 24.5 25.7 24.5 7.3 0 15.8-2.4 19.9-6.9 1.1-1.2 1.9-2.8-.2-4.7l-3.2-3.2c-1.8-1.9-3.2-1.2-4.8.1-3.3 2.3-6.6 3.3-9.9 3.3-6.1 0-11.3-3.3-12-9.5H344c.9 0 1.7-.1 2.2-.3 1.5 12.7 11.8 21.2 25.5 21.2 7.3 0 15.8-2.4 19.9-6.9 1.1-1.2 1.9-2.8-.2-4.7l-3.2-3.2c-1.8-1.9-3.2-1.2-4.8.1-3.3 2.3-6.6 3.3-9.9 3.3-6.1 0-11.3-3.3-12-9.5H391c3.4 0 4.3-1.2 4.3-4.5zm-80.7-4.3c.6-4.9 4.1-8 9-8 2.7 0 4.8.9 6.5 2.6 1.3 1.3 2.2 3.2 2.6 5.4h-18.1zm47 0c.6-4.9 4.1-8 9-8 2.7 0 4.8.9 6.5 2.6 1.3 1.3 2.2 3.2 2.6 5.4h-18.1z"/><g><path class="st0" d="M56.9 20.7c-1.7-.3-3.2.9-3.5 2.6-.1.8.1 1.6.6 2.3.5.7 1.2 1.1 2 1.2h.5c.7 0 1.3-.2 1.8-.6.7-.5 1.1-1.2 1.2-2 .3-1.7-.9-3.3-2.6-3.5zM80.1 23.3c-.1.8.1 1.6.6 2.3.5.7 1.2 1.1 2 1.2h.5c.7 0 1.3-.2 1.8-.6.7-.5 1.1-1.2 1.2-2 .2-1.7-.9-3.2-2.6-3.5-1.7-.3-3.3.9-3.5 2.6z"/></g><path class="st0" d="M79.3 28.7c-13.7-2-26.6 7.4-28.8 21l-.3 1.9c-.3 2.2-1.6 4.2-3.5 5.6-1.2.9-2.8 1.4-4.3 1.6-.2 0-.4.2-.4.4v11c0 .7-.5 1.4-1.2 1.6-1 .3-2-.5-2-1.5v-11c0-.4-.3-.8-.7-.9-.8-.3-1.3-.7-1.9-1.2-.2-.1-.4 0-.4.2V63c0 .7-.5 1.4-1.2 1.6-1 .3-2-.5-2-1.5V47.2c0-4.5-3.6-8.1-8.1-8.1-2.5 0-4.8 1.2-6.2 3-.2.2-.4 0-.4-.2.5-1.8 1.1-3.6 1.9-5.4.9-2 2.1-3.9 3.4-5.7 1.1-1.5 2.3-2.9 3.6-4.2.1-.1.4 0 .4.2v9.1c0 .7.5 1.4 1.2 1.6 1 .3 2-.5 2-1.5V24.2c0-.4.2-.8.5-1 .7-.5 1.5-1 2.2-1.5.2-.1.4 0 .4.2v6.4c0 .7.5 1.4 1.2 1.6 1 .3 2-.5 2-1.5v-8c0-.3.2-.5.4-.7 1-.4 1.9-.8 1.9-.8.2-.1.5-.2.7-.2l.6-.2.9-.3c.5-.1.9-.2 1.4-.4l.4-.1c2.5-.6 4.5-.7 5.2-.7 2.5-.2 4.9-.1 7.2.3 4.4.7 8.5 2.1 12.3 4.4 3.8 2.2 8.6 1.5 11.2-1.7 2.3-2.9 2.6-7.1.3-10.3-.7-1-1.6-1.7-2.6-2.4-6-3.6-12.5-5.9-19.5-6.8C45.1-1.1 33 1.6 23 8.2c-12.3 8-20.3 20.4-22.4 35C-.9 53 .5 63 4.7 72l1.4 2.7c.4.7.8 1.5 1.3 2.2l1.5 2.3c.4.5.7 1.1 1.1 1.6 8.1 10.9 19.8 17.9 33.2 19.9 2.5.4 5 .6 7.5.6 10.8 0 21.2-3.4 30-10 10.9-8 17.9-19.8 19.9-33.2.1-.4.1-.9.1-1.2 1.7-13.6-7.9-26.2-21.4-28.2zM84 54.9c-.1.4-.1.8-.1 1.2-3 18-20.1 30.5-38.2 27.8-5.3-.8-9.8-2.3-12.5-4.3-5.5-3.3-9.9-8.1-12.8-13.8-.2-.3.3-.6.5-.3C25 71.2 31.3 75 38.5 75.8l.7.1C52.7 77.2 65 67.5 67 54l.2-1.5c.4-3 2.4-5.5 5.2-6.6 2.9-1.2 6.1-.6 8.9 1.5 2.1 1.6 3.1 4.5 2.7 7.5z"/><g><path class="st0" d="M386.1 35.2l-1 1.6c-1.2 1.8-2.3 2-4.7.8l-9.6-5.1-9.6 5.1c-2.4 1.2-3.5 1-4.7-.8l-1-1.6c-1.3-1.8-.8-3.2 1.4-4.6l11.9-7.1c1.6-.9 2.5-.9 4.1 0l11.9 7.1c2.1 1.4 2.6 2.8 1.3 4.6z"/></g><g><path class="st0" d="M400.4 40.1V23.5c0-.5.3-.8.8-.8h10.2c.5 0 .8.3.8.8v.4c0 .5-.3.8-.8.8h-8.7v6.1h6.5c.5 0 .8.3.8.8v.4c0 .5-.3.8-.8.8h-6.5v7.4c0 .5-.3.8-.8.8h-.7c-.5 0-.8-.4-.8-.9zM413.7 22.4c0-1 .8-1.7 1.7-1.7 1 0 1.8.8 1.8 1.7 0 1-.8 1.7-1.8 1.7-.9 0-1.7-.7-1.7-1.7zm.6 16.4V27.6c0-.5.3-.8.8-.8h.7c.5 0 .8.3.8.8v11.3c0 .4.1.6.5.6.2 0 .4-.1.6-.2.5-.2.7 0 .9.4l.1.3c.2.5.1.8-.2 1-.6.4-1.3.5-1.8.5-1.4-.2-2.4-1-2.4-2.7zM420.3 38.8v-17c0-.4.3-.7.8-.8l.6-.1c.6-.2.9.2.9.8v17.2c0 .4.1.6.5.6.2 0 .4-.1.6-.2.5-.2.7 0 1 .4l.1.3c.2.5.1.8-.2 1-.6.4-1.3.5-1.8.5-1.5-.2-2.5-1-2.5-2.7zM449.2 32.4v7.8c0 .5-.3.8-.8.8h-.7c-.5 0-.8-.3-.8-.8v-7.6c0-2.5-1.4-4.1-3.7-4.1-2.4 0-4.1 1.6-4.1 4.1v7.6c0 .5-.3.8-.8.8h-.7c-.5 0-.8-.3-.8-.8v-7.6c0-2.5-1.4-4.1-3.8-4.1-2.3 0-4.1 1.6-4.1 4.1v7.6c0 .5-.3.8-.8.8h-.7c-.5 0-.8-.3-.8-.8V29c0-.3-.1-.5-.5-.5-.2 0-.4.1-.7.2-.4.2-.7 0-.9-.4l-.1-.3c-.2-.5-.1-.8.2-1 .5-.4 1.3-.5 1.7-.5 1.3 0 2.3.8 2.3 2.4.9-1.5 2.5-2.4 4.6-2.4 2.4 0 4.1 1.1 5 2.9.9-1.8 2.7-2.9 5.1-2.9 3.8 0 5.9 2.5 5.9 5.9zM458.4 39.4c1.2 0 2.8-.3 4.3-1.6.5-.4.9-.4 1.2 0l.3.3c.4.5.2.8-.1 1.1-1.7 1.6-4.1 2.2-5.8 2.2-3.9 0-7.5-2.7-7.5-7.3 0-4.3 3-7.4 7.1-7.4 2 0 3.7.7 4.9 1.9 1.4 1.4 2.1 3.2 2.1 5.2 0 .5-.4.9-1 .9H453c.5 3 2.8 4.7 5.4 4.7zm-5.2-6.7h9.5c-.2-1.2-.6-2.1-1.3-2.8-.8-.9-2-1.4-3.4-1.4-2.5 0-4.4 1.6-4.8 4.2zM466.4 39.1c-.3-.4-.5-.8.1-1.2l.2-.2c.4-.3.8-.5 1.2 0 .9 1 2.2 1.7 3.6 1.7 1.7 0 2.9-.8 2.9-2 0-1.6-1.6-2.2-3.4-2.9-2-.8-4-1.7-4-4 0-2.4 1.9-3.9 4.8-3.9 1.5 0 3.1.5 4.3 1.8.3.3.5.7.1 1.2l-.2.2c-.3.3-.7.5-1.2.1-1-1-1.8-1.4-3-1.4-1.5 0-2.5.7-2.5 1.8s1.1 1.7 2.7 2.3c2.4 1 4.7 1.9 4.7 4.7 0 2.4-2 4-5 4-1.9 0-4-.7-5.3-2.2z"/></g></symbol></svg>