<svg width="476.6" height="101.2" xmlns="http://www.w3.org/2000/svg" xmlns:xlink="http://www.w3.org/1999/xlink" x="0px" y="0px"
	 viewBox="0 0 476.6 101.2" style="enable-background:new 0 0 476.6 101.2;" xml:space="preserve">

<g>
	<g>
		<g>
			<path class="st0" d="M242.8,40.7c-11.6,0-20.6,6.6-23.7,16.4c-1.1-3.7-3.1-7.1-5.8-9.8c-4-4-10.1-6.6-17.5-6.6
				c-11,0-19.5,5.8-23.1,14.7c-0.6-1.5-2-2.4-3.9-2.4H146c-2.8,0-4.3,1.5-4.3,4.2v3.2c0,2.8,1.5,4.3,4.3,4.3h10.3
				c-0.6,2.6-2.1,4.8-4.2,6.5c-2.7,2.3-6.3,3.5-10.1,3.5c-9.4,0-16.3-7-16.3-16.5c0-9.7,7.1-16.7,15.9-16.7c4.5,0,8.4,1.9,11.5,4.4
				c2.1,1.7,4,1.9,6.1,0.1l4.4-4.1c2.1-1.9,2.1-4.3,0.1-6.2c-5.7-5.5-13.4-8.9-22.7-8.9c-18,0-32,13.3-32,31.2
				c0,18,13.8,31.2,32,31.2c9.1,0,17.1-3.3,22.7-8.9c3.3-3.2,5.8-7,7.4-11.4c1.9,12.2,12,20.4,25.3,20.4c7.3,0,15.8-2.4,19.9-6.9
				c1.1-1.2,1.9-2.8-0.2-4.7l-3.2-3.2c-1.8-1.9-3.2-1.2-4.8,0.1c-3.3,2.3-6.6,3.3-9.9,3.3c-6.1,0-11.3-3.3-12-9.5h29.5
				c0.9,0,1.7-0.1,2.2-0.3c1.5,12.7,11.8,21.2,25.5,21.2c7.3,0,15.8-2.4,19.9-6.9c1.1-1.2,1.9-2.8-0.2-4.7l-3.2-3.2
				c-1.8-1.9-3.2-1.2-4.8,0.1c-3.3,2.3-6.6,3.3-9.9,3.3c-6.1,0-11.3-3.3-12-9.5h29.5c3.4,0,4.3-1.2,4.3-4.4c0-6.4-2.5-12.5-6.8-16.8
				C256.3,43.3,250.2,40.7,242.8,40.7z M186.4,59.7c0.6-4.9,4.1-8,9-8c2.7,0,4.8,0.9,6.5,2.6c1.3,1.3,2.2,3.2,2.6,5.4H186.4z
				 M233.4,59.7c0.6-4.9,4.1-8,9-8c2.7,0,4.8,0.9,6.5,2.6c1.3,1.3,2.2,3.2,2.6,5.4H233.4z"/>
			<path class="st0" d="M298.6,75.9c-0.8-1.8-1.9-2.9-4.3-1.4c-1,0.6-2.4,1.3-3.8,1.3c-2.9,0-5.2-1.5-5.2-6V53.1h9.2
				c2.7,0,4.3-1.6,4.3-4.3v-3.2c0-2.8-1.6-4.3-4.3-4.3h-9.2V29.3c0-2.8-1.5-4.7-4.3-4.2l-7.4,1.3c-2.7,0.6-4.3,1.6-4.3,4.3v40.8
				c0,12.7,8.9,18,18.2,18c4.5,0,8.9-1.2,11.8-3.2c1.2-0.9,2.9-2,1.9-4.3L298.6,75.9z"/>
			<path class="st0" d="M395.3,64c0-6.4-2.5-12.5-6.8-16.8c-4-4-10.1-6.6-17.5-6.6c-11.6,0-20.6,6.6-23.7,16.4
				c-1.1-3.7-3.1-7.1-5.8-9.8c-4-4-10.1-6.6-17.5-6.6c-14.6,0-24.9,10.3-24.9,24.3c0,14.5,10.8,24.5,25.7,24.5
				c7.3,0,15.8-2.4,19.9-6.9c1.1-1.2,1.9-2.8-0.2-4.7l-3.2-3.2c-1.8-1.9-3.2-1.2-4.8,0.1c-3.3,2.3-6.6,3.3-9.9,3.3
				c-6.1,0-11.3-3.3-12-9.5H344c0.9,0,1.7-0.1,2.2-0.3c1.5,12.7,11.8,21.2,25.5,21.2c7.3,0,15.8-2.4,19.9-6.9
				c1.1-1.2,1.9-2.8-0.2-4.7l-3.2-3.2c-1.8-1.9-3.2-1.2-4.8,0.1c-3.3,2.3-6.6,3.3-9.9,3.3c-6.1,0-11.3-3.3-12-9.5H391
				C394.4,68.5,395.3,67.3,395.3,64z M314.6,59.7c0.6-4.9,4.1-8,9-8c2.7,0,4.8,0.9,6.5,2.6c1.3,1.3,2.2,3.2,2.6,5.4H314.6z
				 M361.6,59.7c0.6-4.9,4.1-8,9-8c2.7,0,4.8,0.9,6.5,2.6c1.3,1.3,2.2,3.2,2.6,5.4H361.6z"/>
		</g>
		<g>
			<path class="st0" d="M56.9,20.7c-1.7-0.3-3.2,0.9-3.5,2.6c-0.1,0.8,0.1,1.6,0.6,2.3c0.5,0.7,1.2,1.1,2,1.2c0.2,0,0.3,0,0.5,0
				c0.7,0,1.3-0.2,1.8-0.6c0.7-0.5,1.1-1.2,1.2-2C59.8,22.5,58.6,20.9,56.9,20.7L56.9,20.7z"/>
			<path class="st0" d="M80.1,23.3c-0.1,0.8,0.1,1.6,0.6,2.3c0.5,0.7,1.2,1.1,2,1.2c0.2,0,0.3,0,0.5,0c0.7,0,1.3-0.2,1.8-0.6
				c0.7-0.5,1.1-1.2,1.2-2c0.2-1.7-0.9-3.2-2.6-3.5C81.9,20.4,80.3,21.6,80.1,23.3z"/>
		</g>
		<path class="st0" d="M79.3,28.7L79.3,28.7c-13.7-2-26.6,7.4-28.8,21l-0.3,1.9c-0.3,2.2-1.6,4.2-3.5,5.6c-1.2,0.9-2.8,1.4-4.3,1.6
			c-0.2,0-0.4,0.2-0.4,0.4v11c0,0.7-0.5,1.4-1.2,1.6c-1,0.3-2-0.5-2-1.5l0-11c0-0.4-0.3-0.8-0.7-0.9c-0.8-0.3-1.3-0.7-1.9-1.2
			c-0.2-0.1-0.4,0-0.4,0.2c0,1.2,0,4.1,0,5.6c0,0.7-0.5,1.4-1.2,1.6c-1,0.3-2-0.5-2-1.5c0,0,0-15.9,0-15.9c0-4.5-3.6-8.1-8.1-8.1
			c-2.5,0-4.8,1.2-6.2,3c0,0,0,0,0,0c-0.2,0.2-0.4,0-0.4-0.2c0.5-1.8,1.1-3.6,1.9-5.4c0.9-2,2.1-3.9,3.4-5.7
			c1.1-1.5,2.3-2.9,3.6-4.2c0.1-0.1,0.4,0,0.4,0.2v9.1c0,0.7,0.5,1.4,1.2,1.6c1,0.3,2-0.5,2-1.5V24.2c0-0.4,0.2-0.8,0.5-1
			c0.7-0.5,1.5-1,2.2-1.5c0.2-0.1,0.4,0,0.4,0.2v6.4c0,0.7,0.5,1.4,1.2,1.6c1,0.3,2-0.5,2-1.5l0-8c0-0.3,0.2-0.5,0.4-0.7
			c1-0.4,1.9-0.8,1.9-0.8c0.2-0.1,0.5-0.2,0.7-0.2l0.6-0.2c0.3-0.1,0.6-0.2,0.9-0.3c0.5-0.1,0.9-0.2,1.4-0.4l0.4-0.1
			c2.5-0.6,4.5-0.7,5.2-0.7c2.5-0.2,4.9-0.1,7.2,0.3c4.4,0.7,8.5,2.1,12.3,4.4c3.8,2.2,8.6,1.5,11.2-1.7c2.3-2.9,2.6-7.1,0.3-10.3
			c-0.7-1-1.6-1.7-2.6-2.4c-6-3.6-12.5-5.9-19.5-6.8c-12-1.6-24.1,1.1-34.1,7.7C10.7,16.2,2.7,28.6,0.6,43.2C-0.9,53,0.5,63,4.7,72
			l1.4,2.7c0.4,0.7,0.8,1.5,1.3,2.2l1.5,2.3c0.4,0.5,0.7,1.1,1.1,1.6c8.1,10.9,19.8,17.9,33.2,19.9c2.5,0.4,5,0.6,7.5,0.6
			c10.8,0,21.2-3.4,30-10c10.9-8,17.9-19.8,19.9-33.2c0.1-0.4,0.1-0.9,0.1-1.2C102.4,43.3,92.8,30.7,79.3,28.7z M84,54.9L84,54.9
			c-0.1,0.4-0.1,0.8-0.1,1.2c-3,18-20.1,30.5-38.2,27.8c-5.3-0.8-9.8-2.3-12.5-4.3c-5.5-3.3-9.9-8.1-12.8-13.8
			c-0.2-0.3,0.3-0.6,0.5-0.3C25,71.2,31.3,75,38.5,75.8l0,0l0.7,0.1C52.7,77.2,65,67.5,67,54l0.2-1.5c0.4-3,2.4-5.5,5.2-6.6
			c2.9-1.2,6.1-0.6,8.9,1.5C83.4,49,84.4,51.9,84,54.9z"/>
	</g>
	<g>
		<path class="st0" d="M386.1,35.2l-1,1.6c-1.2,1.8-2.3,2-4.7,0.8l-9.6-5.1l-9.6,5.1c-2.4,1.2-3.5,1-4.7-0.8l-1-1.6
			c-1.3-1.8-0.8-3.2,1.4-4.6l11.9-7.1c1.6-0.9,2.5-0.9,4.1,0l11.9,7.1C386.9,32,387.4,33.4,386.1,35.2z"/>
	</g>
	<g>
		<path class="st0" d="M400.4,40.1V23.5c0-0.5,0.3-0.8,0.8-0.8h10.2c0.5,0,0.8,0.3,0.8,0.8v0.4c0,0.5-0.3,0.8-0.8,0.8h-8.7v6.1h6.5
			c0.5,0,0.8,0.3,0.8,0.8V32c0,0.5-0.3,0.8-0.8,0.8h-6.5v7.4c0,0.5-0.3,0.8-0.8,0.8h-0.7C400.7,41,400.4,40.6,400.4,40.1z"/>
		<path class="st0" d="M413.7,22.4c0-1,0.8-1.7,1.7-1.7c1,0,1.8,0.8,1.8,1.7c0,1-0.8,1.7-1.8,1.7C414.5,24.1,413.7,23.4,413.7,22.4z
			 M414.3,38.8V27.6c0-0.5,0.3-0.8,0.8-0.8h0.7c0.5,0,0.8,0.3,0.8,0.8v11.3c0,0.4,0.1,0.6,0.5,0.6c0.2,0,0.4-0.1,0.6-0.2
			c0.5-0.2,0.7,0,0.9,0.4l0.1,0.3c0.2,0.5,0.1,0.8-0.2,1c-0.6,0.4-1.3,0.5-1.8,0.5C415.3,41.3,414.3,40.5,414.3,38.8z"/>
		<path class="st0" d="M420.3,38.8v-17c0-0.4,0.3-0.7,0.8-0.8l0.6-0.1c0.6-0.2,0.9,0.2,0.9,0.8v17.2c0,0.4,0.1,0.6,0.5,0.6
			c0.2,0,0.4-0.1,0.6-0.2c0.5-0.2,0.7,0,1,0.4l0.1,0.3c0.2,0.5,0.1,0.8-0.2,1c-0.6,0.4-1.3,0.5-1.8,0.5
			C421.3,41.3,420.3,40.5,420.3,38.8z"/>
		<path class="st0" d="M449.2,32.4v7.8c0,0.5-0.3,0.8-0.8,0.8h-0.7c-0.5,0-0.8-0.3-0.8-0.8v-7.6c0-2.5-1.4-4.1-3.7-4.1
			c-2.4,0-4.1,1.6-4.1,4.1v7.6c0,0.5-0.3,0.8-0.8,0.8h-0.7c-0.5,0-0.8-0.3-0.8-0.8v-7.6c0-2.5-1.4-4.1-3.8-4.1
			c-2.3,0-4.1,1.6-4.1,4.1v7.6c0,0.5-0.3,0.8-0.8,0.8h-0.7c-0.5,0-0.8-0.3-0.8-0.8V29c0-0.3-0.1-0.5-0.5-0.5c-0.2,0-0.4,0.1-0.7,0.2
			c-0.4,0.2-0.7,0-0.9-0.4l-0.1-0.3c-0.2-0.5-0.1-0.8,0.2-1c0.5-0.4,1.3-0.5,1.7-0.5c1.3,0,2.3,0.8,2.3,2.4c0.9-1.5,2.5-2.4,4.6-2.4
			c2.4,0,4.1,1.1,5,2.9c0.9-1.8,2.7-2.9,5.1-2.9C447.1,26.5,449.2,29,449.2,32.4z"/>
		<path class="st0" d="M458.4,39.4c1.2,0,2.8-0.3,4.3-1.6c0.5-0.4,0.9-0.4,1.2,0l0.3,0.3c0.4,0.5,0.2,0.8-0.1,1.1
			c-1.7,1.6-4.1,2.2-5.8,2.2c-3.9,0-7.5-2.7-7.5-7.3c0-4.3,3-7.4,7.1-7.4c2,0,3.7,0.7,4.9,1.9c1.4,1.4,2.1,3.2,2.1,5.2
			c0,0.5-0.4,0.9-1,0.9h-10.9C453.5,37.7,455.8,39.4,458.4,39.4z M453.2,32.7h9.5c-0.2-1.2-0.6-2.1-1.3-2.8c-0.8-0.9-2-1.4-3.4-1.4
			C455.5,28.5,453.6,30.1,453.2,32.7z"/>
		<path class="st0" d="M466.4,39.1c-0.3-0.4-0.5-0.8,0.1-1.2l0.2-0.2c0.4-0.3,0.8-0.5,1.2,0c0.9,1,2.2,1.7,3.6,1.7
			c1.7,0,2.9-0.8,2.9-2c0-1.6-1.6-2.2-3.4-2.9c-2-0.8-4-1.7-4-4c0-2.4,1.9-3.9,4.8-3.9c1.5,0,3.1,0.5,4.3,1.8
			c0.3,0.3,0.5,0.7,0.1,1.2l-0.2,0.2c-0.3,0.3-0.7,0.5-1.2,0.1c-1-1-1.8-1.4-3-1.4c-1.5,0-2.5,0.7-2.5,1.8c0,1.1,1.1,1.7,2.7,2.3
			c2.4,1,4.7,1.9,4.7,4.7c0,2.4-2,4-5,4C469.8,41.3,467.7,40.6,466.4,39.1z"/>
	</g>
</g>
</svg>
